# xmcd CD database file
#
# Track frame offsets:
#	150
#	48460
#	94130
#	139346
#	184710
#	238235
#	278735
#
# Disc length: 3746 seconds
#
# Revision: 1
# Processed by: cddbd v1.5.1PL2 Copyright (c) Steve Scherf et al.
# Submitted via: CDex 1.51
#
DISCID=640ea007
DTITLE=Tim Palma - Tai Chi
DYEAR=2001
DGENRE=New Age
TTITLE0=Inner Strength
TTITLE1=Quiet Shadows
TTITLE2=Towards The Flow
TTITLE3=Moving In Balance
TTITLE4=Perfect Circle
TTITLE5=Inner Pathways
TTITLE6=Meditation
EXTD=YEAR: 2001
EXTT0=
EXTT1=
EXTT2=
EXTT3=
EXTT4=
EXTT5=
EXTT6=
PLAYORDER=
